<svg width="77" height="9" viewBox="0 0 77 9" fill="none" xmlns="http://www.w3.org/2000/svg">
<path d="M0 8.97506V0H1.79493V8.97506H0ZM6.06709 8.97506L1.57962 4.48751L6.06709 0H8.75956L5.16948 3.59005H5.15571L4.27209 4.48751L8.75956 8.97506H6.06709Z" fill="#1B212C"/>
<path d="M14.8761 8.97506V0H16.6711V3.59005H23.851C23.851 4.09479 23.6733 4.52035 23.3182 4.8662C22.9629 5.21224 22.5424 5.38501 22.0561 5.38501H16.6711V8.97506H14.8761ZM23.851 8.97506V0H25.6462V8.97506H23.851Z" fill="#1B212C"/>
<path d="M31.749 5.38501V0H33.5443V5.38501H31.749ZM33.5443 8.97506C33.0393 8.97506 32.614 8.80221 32.2682 8.4561C31.9221 8.10103 31.749 7.67558 31.749 7.18009H42.5192C42.5192 7.6848 42.3411 8.11032 41.9864 8.4561C41.6311 8.80221 41.2103 8.97506 40.7239 8.97506H33.5443ZM40.7239 5.38501V0H42.5192V5.38501H40.7239Z" fill="#1B212C"/>
<path d="M53.1095 8.97506V1.795H50.417C49.9122 1.795 49.4866 1.6223 49.141 1.27619C48.7949 0.921085 48.6222 0.495564 48.6222 0H59.392C59.392 0.504894 59.214 0.93034 58.8593 1.27619C58.5036 1.6223 58.0832 1.795 57.5971 1.795H54.9044V8.97506H53.1095Z" fill="#1B212C"/>
<path d="M65.4951 8.97506L72.6752 1.795H67.2902C66.7854 1.795 66.3599 1.6223 66.0141 1.27619C65.6679 0.921085 65.4951 0.495564 65.4951 0H76.265V0.897428L69.9826 7.18009H74.4701C74.9654 7.18009 75.3861 7.35791 75.7321 7.7129C76.0872 8.0683 76.265 8.48894 76.265 8.97506H65.4951Z" fill="#1B212C"/>
</svg>
