<svg width="100" height="100" viewBox="0 0 100 100" fill="none" xmlns="http://www.w3.org/2000/svg">
<rect width="100" height="100" fill="#1B212C"/>
<path d="M12 54.9751V46H13.7949V54.9751H12ZM18.0671 54.9751L13.5796 50.4875L18.0671 46H20.7596L17.1695 49.59H17.1557L16.2721 50.4875L20.7596 54.9751H18.0671Z" fill="#FFD6AE"/>
<path d="M26.8761 54.9751V46H28.6711V49.59H35.851C35.851 50.0948 35.6733 50.5203 35.3182 50.8662C34.9629 51.2122 34.5424 51.385 34.0561 51.385H28.6711V54.9751H26.8761ZM35.851 54.9751V46H37.6462V54.9751H35.851Z" fill="#FFD6AE"/>
<path d="M43.749 51.385V46H45.5443V51.385H43.749ZM45.5443 54.9751C45.0393 54.9751 44.614 54.8022 44.2682 54.4561C43.9221 54.101 43.749 53.6756 43.749 53.1801H54.5192C54.5192 53.6848 54.3411 54.1103 53.9864 54.4561C53.6311 54.8022 53.2103 54.9751 52.7239 54.9751H45.5443ZM52.7239 51.385V46H54.5192V51.385H52.7239Z" fill="#FFD6AE"/>
<path d="M65.1095 54.9751V47.795H62.417C61.9122 47.795 61.4866 47.6223 61.141 47.2762C60.7949 46.9211 60.6222 46.4956 60.6222 46H71.392C71.392 46.5049 71.214 46.9303 70.8593 47.2762C70.5036 47.6223 70.0832 47.795 69.5971 47.795H66.9044V54.9751H65.1095Z" fill="#FFD6AE"/>
<path d="M77.4951 54.9751L84.6752 47.795H79.2902C78.7854 47.795 78.3599 47.6223 78.0141 47.2762C77.6679 46.9211 77.4951 46.4956 77.4951 46H88.265V46.8974L81.9826 53.1801H86.4701C86.9654 53.1801 87.3861 53.3579 87.7321 53.7129C88.0872 54.0683 88.265 54.4889 88.265 54.9751H77.4951Z" fill="#FFD6AE"/>
</svg>
